<svg width="1280" height="640" viewBox="0 0 1280 640" fill="none" xmlns="http://www.w3.org/2000/svg">
<rect width="1280" height="640" fill="url(#paint0_radial_4_52)"/>
<path d="M427.35 490V469H434.07C436.51 469 438.53 469.43 440.13 470.29C441.73 471.15 442.91 472.37 443.67 473.95C444.45 475.51 444.84 477.37 444.84 479.53C444.84 481.69 444.45 483.55 443.67 485.11C442.91 486.67 441.73 487.88 440.13 488.74C438.53 489.58 436.51 490 434.07 490H427.35ZM430.35 487.48H433.95C435.89 487.48 437.43 487.16 438.57 486.52C439.71 485.88 440.52 484.97 441 483.79C441.5 482.59 441.75 481.17 441.75 479.53C441.75 477.87 441.5 476.44 441 475.24C440.52 474.04 439.71 473.12 438.57 472.48C437.43 471.84 435.89 471.52 433.95 471.52H430.35V487.48ZM454.726 490.36C453.286 490.36 452.006 490.04 450.886 489.4C449.766 488.74 448.886 487.83 448.246 486.67C447.606 485.51 447.286 484.15 447.286 482.59C447.286 481.03 447.596 479.67 448.216 478.51C448.856 477.33 449.736 476.41 450.856 475.75C451.976 475.09 453.286 474.76 454.786 474.76C456.246 474.76 457.506 475.09 458.566 475.75C459.646 476.39 460.476 477.24 461.056 478.3C461.636 479.36 461.926 480.54 461.926 481.84C461.926 482.04 461.926 482.26 461.926 482.5C461.926 482.74 461.916 482.99 461.896 483.25H449.476V481.15H458.926C458.866 479.91 458.446 478.94 457.666 478.24C456.886 477.54 455.916 477.19 454.756 477.19C453.936 477.19 453.176 477.37 452.476 477.73C451.796 478.09 451.246 478.62 450.826 479.32C450.426 480.02 450.226 480.91 450.226 481.99V482.83C450.226 483.93 450.426 484.86 450.826 485.62C451.246 486.36 451.796 486.92 452.476 487.3C453.176 487.68 453.926 487.87 454.726 487.87C455.666 487.87 456.456 487.66 457.096 487.24C457.736 486.8 458.206 486.21 458.506 485.47H461.506C461.246 486.41 460.806 487.25 460.186 487.99C459.566 488.71 458.796 489.29 457.876 489.73C456.976 490.15 455.926 490.36 454.726 490.36ZM468.401 490L462.971 475.12H466.121L470.261 487.39H470.321L474.491 475.12H477.581L472.151 490H468.401ZM486.132 490.36C484.692 490.36 483.412 490.04 482.292 489.4C481.172 488.74 480.292 487.83 479.652 486.67C479.012 485.51 478.692 484.15 478.692 482.59C478.692 481.03 479.002 479.67 479.622 478.51C480.262 477.33 481.142 476.41 482.262 475.75C483.382 475.09 484.692 474.76 486.192 474.76C487.652 474.76 488.912 475.09 489.972 475.75C491.052 476.39 491.882 477.24 492.462 478.3C493.042 479.36 493.332 480.54 493.332 481.84C493.332 482.04 493.332 482.26 493.332 482.5C493.332 482.74 493.322 482.99 493.302 483.25H480.882V481.15H490.332C490.272 479.91 489.852 478.94 489.072 478.24C488.292 477.54 487.322 477.19 486.162 477.19C485.342 477.19 484.582 477.37 483.882 477.73C483.202 478.09 482.652 478.62 482.232 479.32C481.832 480.02 481.632 480.91 481.632 481.99V482.83C481.632 483.93 481.832 484.86 482.232 485.62C482.652 486.36 483.202 486.92 483.882 487.3C484.582 487.68 485.332 487.87 486.132 487.87C487.072 487.87 487.862 487.66 488.502 487.24C489.142 486.8 489.612 486.21 489.912 485.47H492.912C492.652 486.41 492.212 487.25 491.592 487.99C490.972 488.71 490.202 489.29 489.282 489.73C488.382 490.15 487.332 490.36 486.132 490.36ZM496.108 490V468.61H499.108V490H496.108ZM509.541 490.36C508.121 490.36 506.841 490.04 505.701 489.4C504.581 488.74 503.691 487.83 503.031 486.67C502.391 485.49 502.071 484.12 502.071 482.56C502.071 481 502.401 479.64 503.061 478.48C503.721 477.3 504.621 476.39 505.761 475.75C506.901 475.09 508.171 474.76 509.571 474.76C510.991 474.76 512.261 475.09 513.381 475.75C514.521 476.39 515.421 477.3 516.081 478.48C516.741 479.64 517.071 481 517.071 482.56C517.071 484.12 516.731 485.49 516.051 486.67C515.391 487.83 514.491 488.74 513.351 489.4C512.231 490.04 510.961 490.36 509.541 490.36ZM509.541 487.84C510.341 487.84 511.071 487.65 511.731 487.27C512.411 486.87 512.961 486.28 513.381 485.5C513.801 484.72 514.011 483.74 514.011 482.56C514.011 481.38 513.801 480.4 513.381 479.62C512.981 478.84 512.441 478.26 511.761 477.88C511.081 477.48 510.351 477.28 509.571 477.28C508.811 477.28 508.091 477.48 507.411 477.88C506.731 478.26 506.181 478.84 505.761 479.62C505.341 480.4 505.131 481.38 505.131 482.56C505.131 483.74 505.341 484.72 505.761 485.5C506.181 486.28 506.721 486.87 507.381 487.27C508.041 487.65 508.761 487.84 509.541 487.84ZM520.043 496.39V475.12H522.683L522.953 477.61H522.983C523.343 477.07 523.783 476.59 524.303 476.17C524.823 475.73 525.423 475.39 526.103 475.15C526.803 474.89 527.583 474.76 528.443 474.76C529.883 474.76 531.143 475.1 532.223 475.78C533.303 476.46 534.143 477.39 534.743 478.57C535.363 479.75 535.673 481.09 535.673 482.59C535.673 484.07 535.363 485.4 534.743 486.58C534.143 487.74 533.293 488.66 532.193 489.34C531.113 490.02 529.823 490.36 528.323 490.36C527.103 490.36 526.043 490.11 525.143 489.61C524.263 489.11 523.563 488.47 523.043 487.69V496.39H520.043ZM527.843 487.78C528.803 487.78 529.643 487.56 530.363 487.12C531.083 486.68 531.633 486.07 532.013 485.29C532.413 484.51 532.613 483.6 532.613 482.56C532.613 481.52 532.413 480.61 532.013 479.83C531.633 479.05 531.083 478.44 530.363 478C529.643 477.56 528.803 477.34 527.843 477.34C526.903 477.34 526.073 477.56 525.353 478C524.633 478.44 524.063 479.05 523.643 479.83C523.243 480.61 523.043 481.52 523.043 482.56C523.043 483.6 523.243 484.51 523.643 485.29C524.063 486.07 524.633 486.68 525.353 487.12C526.073 487.56 526.903 487.78 527.843 487.78ZM545.488 490.36C544.048 490.36 542.768 490.04 541.648 489.4C540.528 488.74 539.648 487.83 539.008 486.67C538.368 485.51 538.048 484.15 538.048 482.59C538.048 481.03 538.358 479.67 538.978 478.51C539.618 477.33 540.498 476.41 541.618 475.75C542.738 475.09 544.048 474.76 545.548 474.76C547.008 474.76 548.268 475.09 549.328 475.75C550.408 476.39 551.238 477.24 551.818 478.3C552.398 479.36 552.688 480.54 552.688 481.84C552.688 482.04 552.688 482.26 552.688 482.5C552.688 482.74 552.678 482.99 552.658 483.25H540.238V481.15H549.688C549.628 479.91 549.208 478.94 548.428 478.24C547.648 477.54 546.678 477.19 545.518 477.19C544.698 477.19 543.938 477.37 543.238 477.73C542.558 478.09 542.008 478.62 541.588 479.32C541.188 480.02 540.988 480.91 540.988 481.99V482.83C540.988 483.93 541.188 484.86 541.588 485.62C542.008 486.36 542.558 486.92 543.238 487.3C543.938 487.68 544.688 487.87 545.488 487.87C546.428 487.87 547.218 487.66 547.858 487.24C548.498 486.8 548.968 486.21 549.268 485.47H552.268C552.008 486.41 551.568 487.25 550.948 487.99C550.328 488.71 549.558 489.29 548.638 489.73C547.738 490.15 546.688 490.36 545.488 490.36ZM555.403 490V475.12H558.073L558.343 478.12H558.373C558.773 477.3 559.223 476.65 559.723 476.17C560.243 475.67 560.843 475.31 561.523 475.09C562.223 474.87 563.013 474.76 563.893 474.76V477.91H563.083C562.403 477.91 561.773 478 561.193 478.18C560.613 478.34 560.113 478.61 559.693 478.99C559.293 479.35 558.973 479.84 558.733 480.46C558.513 481.06 558.403 481.81 558.403 482.71V490H555.403ZM566.696 482.56V480.04H578.816V482.56H566.696ZM582.917 490V469H595.967V471.46H585.917V478.27H594.317V480.67H585.917V490H582.917ZM598.47 490V475.12H601.14L601.41 478.12H601.44C601.84 477.3 602.29 476.65 602.79 476.17C603.31 475.67 603.91 475.31 604.59 475.09C605.29 474.87 606.08 474.76 606.96 474.76V477.91H606.15C605.47 477.91 604.84 478 604.26 478.18C603.68 478.34 603.18 478.61 602.76 478.99C602.36 479.35 602.04 479.84 601.8 480.46C601.58 481.06 601.47 481.81 601.47 482.71V490H598.47ZM609.522 490V475.12H612.522V490H609.522ZM611.022 472.3C610.462 472.3 609.992 472.12 609.612 471.76C609.232 471.38 609.042 470.92 609.042 470.38C609.042 469.84 609.222 469.39 609.582 469.03C609.962 468.67 610.442 468.49 611.022 468.49C611.582 468.49 612.052 468.67 612.432 469.03C612.812 469.39 613.002 469.84 613.002 470.38C613.002 470.92 612.812 471.38 612.432 471.76C612.052 472.12 611.582 472.3 611.022 472.3ZM623.212 490.36C621.772 490.36 620.492 490.04 619.372 489.4C618.252 488.74 617.372 487.83 616.732 486.67C616.092 485.51 615.772 484.15 615.772 482.59C615.772 481.03 616.082 479.67 616.702 478.51C617.342 477.33 618.222 476.41 619.342 475.75C620.462 475.09 621.772 474.76 623.272 474.76C624.732 474.76 625.992 475.09 627.052 475.75C628.132 476.39 628.962 477.24 629.542 478.3C630.122 479.36 630.412 480.54 630.412 481.84C630.412 482.04 630.412 482.26 630.412 482.5C630.412 482.74 630.402 482.99 630.382 483.25H617.962V481.15H627.412C627.352 479.91 626.932 478.94 626.152 478.24C625.372 477.54 624.402 477.19 623.242 477.19C622.422 477.19 621.662 477.37 620.962 477.73C620.282 478.09 619.732 478.62 619.312 479.32C618.912 480.02 618.712 480.91 618.712 481.99V482.83C618.712 483.93 618.912 484.86 619.312 485.62C619.732 486.36 620.282 486.92 620.962 487.3C621.662 487.68 622.412 487.87 623.212 487.87C624.152 487.87 624.942 487.66 625.582 487.24C626.222 486.8 626.692 486.21 626.992 485.47H629.992C629.732 486.41 629.292 487.25 628.672 487.99C628.052 488.71 627.282 489.29 626.362 489.73C625.462 490.15 624.412 490.36 623.212 490.36ZM633.128 490V475.12H635.798L636.008 477.64H636.068C636.548 476.76 637.218 476.06 638.078 475.54C638.958 475.02 639.988 474.76 641.168 474.76C642.348 474.76 643.368 475.01 644.228 475.51C645.088 475.99 645.748 476.72 646.208 477.7C646.688 478.68 646.928 479.92 646.928 481.42V490H643.928V481.72C643.928 480.28 643.618 479.19 642.998 478.45C642.398 477.69 641.508 477.31 640.328 477.31C639.508 477.31 638.788 477.51 638.168 477.91C637.548 478.29 637.048 478.85 636.668 479.59C636.308 480.33 636.128 481.23 636.128 482.29V490H633.128ZM656.81 490.36C655.37 490.36 654.11 490.02 653.03 489.34C651.95 488.66 651.11 487.73 650.51 486.55C649.91 485.37 649.61 484.03 649.61 482.53C649.61 481.05 649.91 479.73 650.51 478.57C651.11 477.39 651.96 476.46 653.06 475.78C654.16 475.1 655.45 474.76 656.93 474.76C658.17 474.76 659.24 475.01 660.14 475.51C661.04 476.01 661.73 476.65 662.21 477.43V468.61H665.21V490H662.6L662.33 487.51H662.27C661.93 488.05 661.49 488.54 660.95 488.98C660.43 489.4 659.83 489.74 659.15 490C658.47 490.24 657.69 490.36 656.81 490.36ZM657.41 487.78C658.37 487.78 659.21 487.56 659.93 487.12C660.65 486.68 661.21 486.07 661.61 485.29C662.01 484.51 662.21 483.6 662.21 482.56C662.21 481.52 662.01 480.61 661.61 479.83C661.21 479.05 660.64 478.44 659.9 478C659.18 477.56 658.35 477.34 657.41 477.34C656.47 477.34 655.64 477.56 654.92 478C654.2 478.44 653.64 479.05 653.24 479.83C652.84 480.61 652.64 481.52 652.64 482.56C652.64 483.6 652.84 484.51 653.24 485.29C653.64 486.07 654.2 486.68 654.92 487.12C655.64 487.56 656.47 487.78 657.41 487.78ZM668.842 490V468.61H671.842V490H668.842ZM677.265 496.39L680.895 488.32H680.025L674.025 475.12H677.295L682.065 485.92H682.095L686.835 475.12H689.985L680.445 496.39H677.265ZM700.123 490V473.08C700.123 472.02 700.293 471.17 700.633 470.53C700.993 469.87 701.513 469.39 702.193 469.09C702.873 468.77 703.693 468.61 704.653 468.61H706.213V471.13H705.133C704.413 471.13 703.893 471.28 703.573 471.58C703.273 471.86 703.123 472.36 703.123 473.08V490H700.123ZM697.963 477.55V475.12H706.633V477.55H697.963ZM715.674 490.36C714.254 490.36 712.974 490.04 711.834 489.4C710.714 488.74 709.824 487.83 709.164 486.67C708.524 485.49 708.204 484.12 708.204 482.56C708.204 481 708.534 479.64 709.194 478.48C709.854 477.3 710.754 476.39 711.894 475.75C713.034 475.09 714.304 474.76 715.704 474.76C717.124 474.76 718.394 475.09 719.514 475.75C720.654 476.39 721.554 477.3 722.214 478.48C722.874 479.64 723.204 481 723.204 482.56C723.204 484.12 722.864 485.49 722.184 486.67C721.524 487.83 720.624 488.74 719.484 489.4C718.364 490.04 717.094 490.36 715.674 490.36ZM715.674 487.84C716.474 487.84 717.204 487.65 717.864 487.27C718.544 486.87 719.094 486.28 719.514 485.5C719.934 484.72 720.144 483.74 720.144 482.56C720.144 481.38 719.934 480.4 719.514 479.62C719.114 478.84 718.574 478.26 717.894 477.88C717.214 477.48 716.484 477.28 715.704 477.28C714.944 477.28 714.224 477.48 713.544 477.88C712.864 478.26 712.314 478.84 711.894 479.62C711.474 480.4 711.264 481.38 711.264 482.56C711.264 483.74 711.474 484.72 711.894 485.5C712.314 486.28 712.854 486.87 713.514 487.27C714.174 487.65 714.894 487.84 715.674 487.84ZM726.116 490V475.12H728.786L729.056 478.12H729.086C729.486 477.3 729.936 476.65 730.436 476.17C730.956 475.67 731.556 475.31 732.236 475.09C732.936 474.87 733.726 474.76 734.606 474.76V477.91H733.796C733.116 477.91 732.486 478 731.906 478.18C731.326 478.34 730.826 478.61 730.406 478.99C730.006 479.35 729.686 479.84 729.446 480.46C729.226 481.06 729.116 481.81 729.116 482.71V490H726.116ZM736.839 490V475.12H739.509L739.749 477.37H739.809C740.289 476.53 740.929 475.89 741.729 475.45C742.549 474.99 743.459 474.76 744.459 474.76C745.239 474.76 745.939 474.87 746.559 475.09C747.199 475.29 747.759 475.6 748.239 476.02C748.719 476.44 749.109 476.98 749.409 477.64H749.439C749.979 476.72 750.689 476.01 751.569 475.51C752.469 475.01 753.479 474.76 754.599 474.76C755.779 474.76 756.799 475.01 757.659 475.51C758.539 475.99 759.209 476.73 759.669 477.73C760.149 478.71 760.389 479.94 760.389 481.42V490H757.419V481.72C757.419 480.28 757.129 479.19 756.549 478.45C755.989 477.69 755.139 477.31 753.999 477.31C753.239 477.31 752.569 477.49 751.989 477.85C751.409 478.21 750.949 478.75 750.609 479.47C750.289 480.17 750.129 481.04 750.129 482.08V490H747.129V481.72C747.129 480.28 746.839 479.19 746.259 478.45C745.679 477.69 744.829 477.31 743.709 477.31C743.009 477.31 742.359 477.51 741.759 477.91C741.179 478.29 740.709 478.85 740.349 479.59C740.009 480.33 739.839 481.23 739.839 482.29V490H736.839ZM770.678 490V468.61H773.678V490H770.678ZM777.481 490V475.12H780.481V490H777.481ZM778.981 472.3C778.421 472.3 777.951 472.12 777.571 471.76C777.191 471.38 777.001 470.92 777.001 470.38C777.001 469.84 777.181 469.39 777.541 469.03C777.921 468.67 778.401 468.49 778.981 468.49C779.541 468.49 780.011 468.67 780.391 469.03C780.771 469.39 780.961 469.84 780.961 470.38C780.961 470.92 780.771 471.38 780.391 471.76C780.011 472.12 779.541 472.3 778.981 472.3ZM792.701 490.36C791.901 490.36 791.151 490.25 790.451 490.03C789.771 489.81 789.161 489.49 788.621 489.07C788.081 488.63 787.621 488.11 787.241 487.51H787.211L786.941 490H784.301V468.61H787.301V477.43C787.781 476.75 788.451 476.14 789.311 475.6C790.191 475.04 791.291 474.76 792.611 474.76C794.091 474.76 795.371 475.1 796.451 475.78C797.551 476.46 798.401 477.39 799.001 478.57C799.621 479.75 799.931 481.09 799.931 482.59C799.931 484.07 799.621 485.4 799.001 486.58C798.401 487.74 797.561 488.66 796.481 489.34C795.401 490.02 794.141 490.36 792.701 490.36ZM792.101 487.78C793.061 487.78 793.891 487.56 794.591 487.12C795.311 486.68 795.871 486.07 796.271 485.29C796.671 484.51 796.871 483.6 796.871 482.56C796.871 481.52 796.671 480.61 796.271 479.83C795.871 479.05 795.311 478.44 794.591 478C793.891 477.56 793.061 477.34 792.101 477.34C791.161 477.34 790.331 477.56 789.611 478C788.891 478.44 788.321 479.05 787.901 479.83C787.501 480.61 787.301 481.52 787.301 482.56C787.301 483.6 787.501 484.51 787.901 485.29C788.321 486.07 788.891 486.68 789.611 487.12C790.331 487.56 791.161 487.78 792.101 487.78ZM802.815 490V475.12H805.485L805.755 478.12H805.785C806.185 477.3 806.635 476.65 807.135 476.17C807.655 475.67 808.255 475.31 808.935 475.09C809.635 474.87 810.425 474.76 811.305 474.76V477.91H810.495C809.815 477.91 809.185 478 808.605 478.18C808.025 478.34 807.525 478.61 807.105 478.99C806.705 479.35 806.385 479.84 806.145 480.46C805.925 481.06 805.815 481.81 805.815 482.71V490H802.815ZM818.548 490.36C817.328 490.36 816.308 490.16 815.488 489.76C814.688 489.34 814.088 488.78 813.688 488.08C813.308 487.38 813.118 486.62 813.118 485.8C813.118 484.82 813.368 483.98 813.868 483.28C814.388 482.58 815.128 482.04 816.088 481.66C817.048 481.28 818.208 481.09 819.568 481.09H823.528C823.528 480.21 823.388 479.49 823.108 478.93C822.828 478.35 822.428 477.92 821.908 477.64C821.408 477.34 820.778 477.19 820.018 477.19C819.118 477.19 818.328 477.42 817.648 477.88C816.988 478.32 816.578 478.99 816.418 479.89H813.418C813.538 478.79 813.898 477.87 814.498 477.13C815.118 476.37 815.908 475.79 816.868 475.39C817.848 474.97 818.908 474.76 820.048 474.76C821.448 474.76 822.628 475.01 823.588 475.51C824.548 476.01 825.278 476.72 825.778 477.64C826.278 478.54 826.528 479.61 826.528 480.85V490H823.948L823.678 487.48H823.648C823.408 487.9 823.118 488.29 822.778 488.65C822.458 489.01 822.088 489.32 821.668 489.58C821.248 489.82 820.778 490.01 820.258 490.15C819.738 490.29 819.168 490.36 818.548 490.36ZM819.178 487.93C819.858 487.93 820.458 487.8 820.978 487.54C821.498 487.28 821.938 486.93 822.298 486.49C822.678 486.03 822.958 485.52 823.138 484.96C823.338 484.4 823.448 483.82 823.468 483.22H819.868C819.008 483.22 818.308 483.32 817.768 483.52C817.228 483.72 816.838 484 816.598 484.36C816.378 484.72 816.268 485.14 816.268 485.62C816.268 486.08 816.378 486.49 816.598 486.85C816.838 487.19 817.168 487.46 817.588 487.66C818.028 487.84 818.558 487.93 819.178 487.93ZM829.71 490V475.12H832.38L832.65 478.12H832.68C833.08 477.3 833.53 476.65 834.03 476.17C834.55 475.67 835.15 475.31 835.83 475.09C836.53 474.87 837.32 474.76 838.2 474.76V477.91H837.39C836.71 477.91 836.08 478 835.5 478.18C834.92 478.34 834.42 478.61 834 478.99C833.6 479.35 833.28 479.84 833.04 480.46C832.82 481.06 832.71 481.81 832.71 482.71V490H829.71ZM842.383 496.39L846.013 488.32H845.143L839.143 475.12H842.413L847.183 485.92H847.213L851.953 475.12H855.103L845.563 496.39H842.383Z" fill="#D5E8FF" fill-opacity="0.87"/>
<path d="M344.023 435V392.3H358.846C363.808 392.3 367.915 393.195 371.168 394.984C374.422 396.733 376.821 399.213 378.366 402.426C379.952 405.598 380.745 409.339 380.745 413.65C380.745 417.961 379.952 421.722 378.366 424.935C376.821 428.107 374.422 430.588 371.168 432.377C367.956 434.126 363.848 435 358.846 435H344.023ZM352.258 427.924H358.419C361.917 427.924 364.682 427.355 366.715 426.216C368.749 425.077 370.192 423.451 371.046 421.336C371.9 419.181 372.327 416.619 372.327 413.65C372.327 410.641 371.9 408.079 371.046 405.964C370.192 403.809 368.749 402.162 366.715 401.023C364.682 399.884 361.917 399.315 358.419 399.315H352.258V427.924ZM390.361 447.2L397.254 431.584H395.546L383.163 404.744H392.13L400.853 424.386H401.097L408.905 404.744H417.689L399.084 447.2H390.361ZM420.445 435V404.744H427.46L428.192 409.685H428.436C429.412 407.896 430.734 406.513 432.401 405.537C434.068 404.52 436.163 404.012 438.684 404.012C441.205 404.012 443.34 404.561 445.089 405.659C446.838 406.716 448.159 408.282 449.054 410.356C449.989 412.43 450.457 414.992 450.457 418.042V435H442.222V418.774C442.222 416.253 441.714 414.321 440.697 412.979C439.68 411.637 438.074 410.966 435.878 410.966C434.495 410.966 433.255 411.312 432.157 412.003C431.059 412.654 430.205 413.609 429.595 414.87C428.985 416.09 428.68 417.595 428.68 419.384V435H420.445ZM464.937 435.732C462.538 435.732 460.545 435.325 458.959 434.512C457.414 433.699 456.275 432.601 455.543 431.218C454.811 429.835 454.445 428.31 454.445 426.643C454.445 424.772 454.913 423.125 455.848 421.702C456.824 420.279 458.288 419.181 460.24 418.408C462.192 417.595 464.653 417.188 467.621 417.188H475.246C475.246 415.683 475.023 414.443 474.575 413.467C474.169 412.491 473.518 411.759 472.623 411.271C471.769 410.783 470.671 410.539 469.329 410.539C467.743 410.539 466.381 410.905 465.242 411.637C464.144 412.328 463.453 413.426 463.168 414.931H455.177C455.421 412.694 456.153 410.763 457.373 409.136C458.634 407.509 460.281 406.249 462.314 405.354C464.388 404.459 466.727 404.012 469.329 404.012C472.257 404.012 474.779 404.5 476.893 405.476C479.008 406.411 480.635 407.814 481.773 409.685C482.912 411.515 483.481 413.752 483.481 416.395V435H476.649L475.795 430.303H475.551C474.901 431.198 474.189 431.991 473.416 432.682C472.684 433.373 471.871 433.943 470.976 434.39C470.082 434.837 469.126 435.163 468.109 435.366C467.093 435.61 466.035 435.732 464.937 435.732ZM467.621 429.388C468.76 429.388 469.736 429.205 470.549 428.839C471.403 428.432 472.135 427.904 472.745 427.253C473.355 426.602 473.823 425.85 474.148 424.996C474.514 424.101 474.758 423.186 474.88 422.251H468.536C467.276 422.251 466.239 422.414 465.425 422.739C464.653 423.024 464.083 423.451 463.717 424.02C463.351 424.549 463.168 425.179 463.168 425.911C463.168 426.643 463.351 427.273 463.717 427.802C464.083 428.331 464.612 428.737 465.303 429.022C465.995 429.266 466.767 429.388 467.621 429.388ZM488.057 435V404.744H495.255L495.926 409.807H496.17C497.106 407.896 498.407 406.452 500.074 405.476C501.742 404.5 503.673 404.012 505.869 404.012C507.374 404.012 508.757 404.215 510.017 404.622C511.319 405.029 512.457 405.679 513.433 406.574C514.409 407.428 515.223 408.567 515.873 409.99H516.117C517.256 408.119 518.659 406.655 520.326 405.598C522.034 404.541 524.19 404.012 526.792 404.012C529.11 404.012 531.123 404.561 532.831 405.659C534.539 406.716 535.841 408.282 536.735 410.356C537.671 412.43 538.138 414.992 538.138 418.042V435H529.964V418.774C529.964 416.253 529.476 414.321 528.5 412.979C527.524 411.637 525.999 410.966 523.925 410.966C522.543 410.966 521.363 411.271 520.387 411.881C519.411 412.45 518.639 413.325 518.069 414.504C517.5 415.643 517.215 417.066 517.215 418.774V435H509.041V418.774C509.041 416.253 508.553 414.321 507.577 412.979C506.601 411.637 505.056 410.966 502.941 410.966C501.721 410.966 500.603 411.312 499.586 412.003C498.57 412.654 497.756 413.609 497.146 414.87C496.577 416.09 496.292 417.595 496.292 419.384V435H488.057ZM543.719 435V404.744H551.954V435H543.719ZM547.867 400.901C546.362 400.901 545.122 400.474 544.146 399.62C543.21 398.725 542.743 397.607 542.743 396.265C542.743 394.923 543.21 393.805 544.146 392.91C545.122 392.015 546.362 391.568 547.867 391.568C549.371 391.568 550.591 392.015 551.527 392.91C552.462 393.805 552.93 394.923 552.93 396.265C552.93 397.566 552.462 398.664 551.527 399.559C550.591 400.454 549.371 400.901 547.867 400.901ZM572.82 435.732C569.607 435.732 566.801 435.061 564.402 433.719C562.043 432.336 560.193 430.466 558.851 428.107C557.55 425.708 556.899 422.963 556.899 419.872C556.899 416.781 557.57 414.057 558.912 411.698C560.254 409.299 562.125 407.428 564.524 406.086C566.923 404.703 569.689 404.012 572.82 404.012C576.724 404.012 579.998 405.029 582.641 407.062C585.325 409.095 587.033 411.901 587.765 415.48H579.042C578.717 414.016 577.964 412.877 576.785 412.064C575.646 411.251 574.304 410.844 572.759 410.844C571.336 410.844 570.055 411.21 568.916 411.942C567.818 412.633 566.944 413.65 566.293 414.992C565.642 416.334 565.317 417.961 565.317 419.872C565.317 421.255 565.5 422.495 565.866 423.593C566.232 424.691 566.74 425.626 567.391 426.399C568.042 427.172 568.814 427.761 569.709 428.168C570.644 428.534 571.661 428.717 572.759 428.717C573.816 428.717 574.772 428.554 575.626 428.229C576.48 427.863 577.212 427.355 577.822 426.704C578.432 426.013 578.839 425.199 579.042 424.264H587.765C587.033 427.761 585.325 430.547 582.641 432.621C579.998 434.695 576.724 435.732 572.82 435.732Z" fill="url(#paint1_linear_4_52)"/>
<path d="M604.226 435V392.3H632.042V398.949H612.461V410.356H628.199V416.822H612.461V435H604.226ZM648.406 435.732C645.478 435.732 642.835 435.061 640.476 433.719C638.118 432.377 636.247 430.506 634.864 428.107C633.522 425.708 632.851 422.963 632.851 419.872C632.851 416.741 633.543 413.996 634.925 411.637C636.308 409.238 638.179 407.367 640.537 406.025C642.896 404.683 645.519 404.012 648.406 404.012C651.334 404.012 653.978 404.683 656.336 406.025C658.695 407.367 660.545 409.238 661.887 411.637C663.27 413.996 663.961 416.741 663.961 419.872C663.961 423.003 663.27 425.769 661.887 428.168C660.505 430.527 658.634 432.377 656.275 433.719C653.957 435.061 651.334 435.732 648.406 435.732ZM648.345 428.778C649.687 428.778 650.887 428.453 651.944 427.802C653.042 427.151 653.917 426.175 654.567 424.874C655.218 423.532 655.543 421.865 655.543 419.872C655.543 417.879 655.218 416.232 654.567 414.931C653.917 413.589 653.042 412.593 651.944 411.942C650.887 411.291 649.728 410.966 648.467 410.966C647.166 410.966 645.966 411.291 644.868 411.942C643.77 412.593 642.896 413.589 642.245 414.931C641.595 416.232 641.269 417.879 641.269 419.872C641.269 421.865 641.595 423.532 642.245 424.874C642.896 426.175 643.75 427.151 644.807 427.802C645.905 428.453 647.085 428.778 648.345 428.778ZM667.9 435V404.744H674.915L675.647 411.393H675.891C676.786 409.238 677.762 407.652 678.819 406.635C679.876 405.578 681.076 404.886 682.418 404.561C683.801 404.195 685.346 404.012 687.054 404.012V412.735H684.797C683.414 412.735 682.174 412.898 681.076 413.223C680.019 413.508 679.124 413.996 678.392 414.687C677.66 415.338 677.091 416.212 676.684 417.31C676.318 418.408 676.135 419.73 676.135 421.275V435H667.9ZM689.822 435V404.744H697.02L697.691 409.807H697.935C698.87 407.896 700.172 406.452 701.839 405.476C703.506 404.5 705.438 404.012 707.634 404.012C709.139 404.012 710.521 404.215 711.782 404.622C713.083 405.029 714.222 405.679 715.198 406.574C716.174 407.428 716.987 408.567 717.638 409.99H717.882C719.021 408.119 720.424 406.655 722.091 405.598C723.799 404.541 725.954 404.012 728.557 404.012C730.875 404.012 732.888 404.561 734.596 405.659C736.304 406.716 737.605 408.282 738.5 410.356C739.435 412.43 739.903 414.992 739.903 418.042V435H731.729V418.774C731.729 416.253 731.241 414.321 730.265 412.979C729.289 411.637 727.764 410.966 725.69 410.966C724.307 410.966 723.128 411.271 722.152 411.881C721.176 412.45 720.403 413.325 719.834 414.504C719.265 415.643 718.98 417.066 718.98 418.774V435H710.806V418.774C710.806 416.253 710.318 414.321 709.342 412.979C708.366 411.637 706.821 410.966 704.706 410.966C703.486 410.966 702.368 411.312 701.351 412.003C700.334 412.654 699.521 413.609 698.911 414.87C698.342 416.09 698.057 417.595 698.057 419.384V435H689.822ZM757.024 435V392.3H785.145V398.949H765.259V410.112H783.315V416.517H765.259V428.351H785.145V435H757.024ZM789.423 435V404.744H796.438L797.17 409.685H797.414C798.39 407.896 799.712 406.513 801.379 405.537C803.047 404.52 805.141 404.012 807.662 404.012C810.184 404.012 812.319 404.561 814.067 405.659C815.816 406.716 817.138 408.282 818.032 410.356C818.968 412.43 819.435 414.992 819.435 418.042V435H811.2V418.774C811.2 416.253 810.692 414.321 809.675 412.979C808.659 411.637 807.052 410.966 804.856 410.966C803.474 410.966 802.233 411.312 801.135 412.003C800.037 412.654 799.183 413.609 798.573 414.87C797.963 416.09 797.658 417.595 797.658 419.384V435H789.423ZM838.247 447.932C835.359 447.932 832.818 447.586 830.622 446.895C828.466 446.204 826.779 445.167 825.559 443.784C824.379 442.442 823.79 440.815 823.79 438.904C823.79 437.481 824.156 436.179 824.888 435C825.62 433.78 826.697 432.682 828.121 431.706C829.544 430.689 831.293 429.815 833.367 429.083L836.356 433.17C834.566 433.78 833.265 434.512 832.452 435.366C831.638 436.22 831.232 437.196 831.232 438.294C831.232 439.107 831.516 439.799 832.086 440.368C832.696 440.937 833.529 441.364 834.587 441.649C835.644 441.974 836.864 442.137 838.247 442.137C839.629 442.137 840.788 441.974 841.724 441.649C842.659 441.324 843.371 440.856 843.859 440.246C844.347 439.677 844.591 439.006 844.591 438.233C844.591 437.135 844.204 436.281 843.432 435.671C842.659 435.102 841.154 434.736 838.918 434.573C836.844 434.41 835.014 434.187 833.428 433.902C831.842 433.577 830.439 433.211 829.219 432.804C828.039 432.357 827.023 431.869 826.169 431.34C825.315 430.811 824.623 430.283 824.095 429.754V428.351L830.622 421.641L835.441 423.471L828.853 430.791L831.049 427.131C831.455 427.294 831.882 427.456 832.33 427.619C832.777 427.782 833.326 427.944 833.977 428.107C834.668 428.27 835.522 428.432 836.539 428.595C837.596 428.717 838.918 428.859 840.504 429.022C843.188 429.225 845.384 429.693 847.092 430.425C848.8 431.157 850.06 432.153 850.874 433.414C851.687 434.675 852.094 436.22 852.094 438.05C852.094 439.636 851.585 441.181 850.569 442.686C849.593 444.231 848.088 445.492 846.055 446.468C844.021 447.444 841.419 447.932 838.247 447.932ZM838.308 426.033C835.746 426.033 833.529 425.545 831.659 424.569C829.829 423.593 828.405 422.271 827.389 420.604C826.413 418.937 825.925 417.086 825.925 415.053C825.925 413.02 826.413 411.169 827.389 409.502C828.405 407.835 829.829 406.513 831.659 405.537C833.529 404.52 835.746 404.012 838.308 404.012C840.87 404.012 843.066 404.52 844.896 405.537C846.766 406.513 848.19 407.835 849.166 409.502C850.142 411.169 850.63 413.02 850.63 415.053C850.63 417.086 850.142 418.937 849.166 420.604C848.19 422.271 846.766 423.593 844.896 424.569C843.066 425.545 840.87 426.033 838.308 426.033ZM838.247 420.055C839.873 420.055 841.175 419.648 842.151 418.835C843.167 417.981 843.676 416.72 843.676 415.053C843.676 413.386 843.167 412.145 842.151 411.332C841.175 410.478 839.894 410.051 838.308 410.051C836.681 410.051 835.359 410.478 834.343 411.332C833.367 412.145 832.879 413.386 832.879 415.053C832.879 416.72 833.367 417.981 834.343 418.835C835.359 419.648 836.661 420.055 838.247 420.055ZM843.249 410.295L841.907 404.744H854.595V409.197L843.249 410.295ZM859.62 435V404.744H867.855V435H859.62ZM863.768 400.901C862.263 400.901 861.023 400.474 860.047 399.62C859.112 398.725 858.644 397.607 858.644 396.265C858.644 394.923 859.112 393.805 860.047 392.91C861.023 392.015 862.263 391.568 863.768 391.568C865.273 391.568 866.493 392.015 867.428 392.91C868.363 393.805 868.831 394.923 868.831 396.265C868.831 397.566 868.363 398.664 867.428 399.559C866.493 400.454 865.273 400.901 863.768 400.901ZM873.715 435V404.744H880.73L881.462 409.685H881.706C882.682 407.896 884.004 406.513 885.671 405.537C887.339 404.52 889.433 404.012 891.954 404.012C894.476 404.012 896.611 404.561 898.359 405.659C900.108 406.716 901.43 408.282 902.324 410.356C903.26 412.43 903.727 414.992 903.727 418.042V435H895.492V418.774C895.492 416.253 894.984 414.321 893.967 412.979C892.951 411.637 891.344 410.966 889.148 410.966C887.766 410.966 886.525 411.312 885.427 412.003C884.329 412.654 883.475 413.609 882.865 414.87C882.255 416.09 881.95 417.595 881.95 419.384V435H873.715ZM923.21 435.732C920.119 435.732 917.374 435.081 914.975 433.78C912.616 432.479 910.766 430.649 909.424 428.29C908.082 425.931 907.411 423.227 907.411 420.177C907.411 417.005 908.061 414.219 909.363 411.82C910.705 409.38 912.555 407.469 914.914 406.086C917.313 404.703 920.078 404.012 923.21 404.012C926.26 404.012 928.923 404.663 931.201 405.964C933.478 407.265 935.267 409.055 936.569 411.332C937.87 413.569 938.521 416.11 938.521 418.957C938.521 419.364 938.5 419.831 938.46 420.36C938.46 420.848 938.439 421.356 938.399 421.885H913.267V416.822H930.164C930.042 414.911 929.33 413.386 928.029 412.247C926.768 411.108 925.182 410.539 923.271 410.539C921.847 410.539 920.546 410.864 919.367 411.515C918.187 412.125 917.252 413.081 916.561 414.382C915.869 415.643 915.524 417.249 915.524 419.201V420.97C915.524 422.637 915.849 424.081 916.5 425.301C917.15 426.48 918.045 427.395 919.184 428.046C920.363 428.697 921.685 429.022 923.149 429.022C924.653 429.022 925.914 428.697 926.931 428.046C927.947 427.355 928.72 426.48 929.249 425.423H937.606C937.036 427.334 936.081 429.083 934.739 430.669C933.397 432.214 931.75 433.455 929.798 434.39C927.846 435.285 925.65 435.732 923.21 435.732Z" fill="white"/>
<path fill-rule="evenodd" clip-rule="evenodd" d="M626.831 166.883C631.941 166.572 635.711 162.921 635.858 157.815C635.934 155.089 635.934 152.361 635.858 149.635C635.711 144.529 631.941 140.878 626.826 140.567C621.969 140.265 614.611 140 603.804 140C592.997 140 585.64 140.265 580.778 140.567C575.668 140.878 571.897 144.529 571.751 149.635C571.672 152.361 571.672 155.089 571.751 157.815C571.897 162.921 575.668 166.572 580.782 166.883C583.379 167.043 586.69 167.194 590.865 167.299C590.479 178.252 590.043 198.093 590.043 231.5C590.043 264.907 590.479 284.748 590.865 295.701C586.69 295.806 583.379 295.957 580.778 296.113C575.668 296.433 571.897 300.079 571.751 305.185C571.672 307.911 571.672 310.639 571.751 313.365C571.897 318.471 575.668 322.117 580.782 322.433C585.64 322.735 593.007 323 603.804 323C614.602 323 621.969 322.735 626.831 322.433C631.941 322.117 635.711 318.471 635.858 313.365C635.934 310.639 635.934 307.911 635.858 305.185C635.711 300.079 631.941 296.433 626.826 296.117C623.47 295.918 620.11 295.779 616.749 295.701C617.129 284.748 617.565 264.907 617.565 231.5C617.565 198.093 617.129 178.252 616.749 167.299C620.112 167.219 623.473 167.078 626.831 166.883ZM631.326 231.5C631.326 211.978 631.179 197.041 630.977 185.764C634.06 185.755 637.234 185.75 640.5 185.75C683.865 185.75 711.304 186.564 725.386 187.145C734.189 187.511 742.248 193.23 743.849 202.586C744.982 209.22 746 218.736 746 231.5C746 244.264 744.982 253.78 743.844 260.414C742.248 269.77 734.189 275.493 725.386 275.855C711.304 276.436 683.865 277.25 640.5 277.25C637.234 277.25 634.06 277.245 630.977 277.236C631.179 265.959 631.326 251.022 631.326 231.5ZM576.283 231.5C576.283 250.623 576.425 265.346 576.622 276.536C569.618 276.365 562.615 276.138 555.614 275.855C546.811 275.489 538.752 269.77 537.151 260.414C536.018 253.78 535 244.264 535 231.5C535 218.736 536.018 209.22 537.156 202.586C538.752 193.23 546.811 187.511 555.614 187.145C560.779 186.93 567.737 186.688 576.622 186.459C576.379 201.471 576.266 216.486 576.283 231.5Z" fill="url(#paint2_linear_4_52)"/>
<defs>
<radialGradient id="paint0_radial_4_52" cx="0" cy="0" r="1" gradientUnits="userSpaceOnUse" gradientTransform="translate(640 -1.85752e-05) rotate(90) scale(399 869.777)">
<stop stop-color="#02473E"/>
<stop offset="1" stop-color="#020420"/>
</radialGradient>
<linearGradient id="paint1_linear_4_52" x1="341" y1="414.5" x2="940" y2="414.5" gradientUnits="userSpaceOnUse">
<stop stop-color="#00DC82"/>
<stop offset="0.427885" stop-color="#00B2FF"/>
</linearGradient>
<linearGradient id="paint2_linear_4_52" x1="640.5" y1="140" x2="640.5" y2="323" gradientUnits="userSpaceOnUse">
<stop stop-color="#78CBFF"/>
<stop offset="1" stop-color="#00FF88"/>
</linearGradient>
</defs>
</svg>
