<svg xmlns="http://www.w3.org/2000/svg" width="180" height="100" viewBox="0 0 180 100"><g id="percent-document"><rect id="lower-document" x="20.446" y="14.954" width="58" height="66" rx="2" transform="translate(-9.52 12.352) rotate(-13)" fill="#dadada" stroke="#666" stroke-width="2" class="mrc-stroke-border mrc-fill-light-background4"></rect><rect id="upper-document" x="25.36" y="9.5" width="64" height="80" rx="2" transform="translate(-4.096 5.188) rotate(-5)" fill="#fff" stroke="#666" stroke-width="2" class="mrc-stroke-border mrc-fill-white"></rect><g id="percent-icon"><path id="percent-icon-shading" d="M40.794,51.953a21.372,21.372,0,0,0,8.271,15.2A19.119,19.119,0,0,1,37.852,51.207C36.985,41.3,43.544,32.536,52.73,30.9A20.944,20.944,0,0,0,40.794,51.953Z" opacity="0.2" class="mrc-fill-border"></path><path id="percent-icon-circle" d="M54.645,69.564a18.372,18.372,0,0,0,3.03-.015c10.511-.92,18.252-10.586,17.289-21.589a20.059,20.059,0,0,0-12.94-17.24m-4.576-1.015a18.375,18.375,0,0,0-3.259,0C43.678,30.621,35.938,40.286,36.9,51.29A20.035,20.035,0,0,0,50.18,68.648" fill="none" stroke="#666" stroke-linecap="round" stroke-width="2" class="mrc-stroke-border"></path><path id="arrow1" d="M56.021,26.034,59.1,29.019a1,1,0,0,1,.022,1.414,1.114,1.114,0,0,1-.1.092l-3.338,2.607a1,1,0,0,1-1.614-.835l.258-5.591a1,1,0,0,1,1.7-.672Z" fill="#666" class="mrc-fill-border"></path><path id="arrow2" d="M57.134,66.033,53.8,68.639a1,1,0,0,0-.08,1.507L56.8,73.13a1,1,0,0,0,1.7-.672l.258-5.591a1,1,0,0,0-1.614-.834Z" fill="#666" class="mrc-fill-border"></path><g id="percent-sign"><ellipse id="lower-circle" cx="61.213" cy="55.186" rx="2.866" ry="3" transform="translate(-4.577 5.545) rotate(-5)" fill="none" stroke="#666" stroke-width="2" class="mrc-stroke-border"></ellipse><line id="cross-bar" x1="61.206" y1="44.144" x2="50.92" y2="58.094" fill="none" stroke="#666" stroke-linecap="round" stroke-width="2" class="mrc-stroke-border"></line><ellipse id="upper-circle" cx="50.913" cy="47.053" rx="2.866" ry="3" transform="translate(-3.907 4.616) rotate(-5)" fill="none" stroke="#666" stroke-width="2" class="mrc-stroke-border"></ellipse></g></g><g id="calculator"><rect id="background" x="75.36" y="10.395" width="92" height="80" rx="8" transform="translate(60.58 166.9) rotate(-85)" fill="#fff" stroke="#666" stroke-width="2" class="mrc-stroke-border mrc-fill-white"></rect><rect id="number-field" x="114.713" y="-6.503" width="18" height="60" rx="1" transform="translate(89.523 144.691) rotate(-85)" fill="#fff" stroke="#666" stroke-width="2" class="mrc-stroke-border mrc-fill-white"></rect><rect id="number-field-shading" x="122.236" y="-11.48" width="4" height="58" transform="translate(95.955 139.756) rotate(-85)" fill="#666" opacity="0.2" class="mrc-fill-border"></rect><rect id="button11" x="126.944" y="65.776" width="30" height="15" transform="translate(56.576 208.293) rotate(-85)" fill="#aaa" stroke-width="2" class="mrc-stroke-border mrc-fill-light-background5"></rect><rect id="button11-shading" x="138.898" y="78.73" width="4" height="13" transform="translate(43.712 218.163) rotate(-85)" fill="#666" opacity="0.2" class="mrc-fill-border"></rect><rect id="button10" x="118.847" y="71.94" width="15" height="15" transform="translate(36.198 198.383) rotate(-85)" fill="#fff" stroke="#666" stroke-width="2" class="mrc-stroke-border mrc-fill-white"></rect><rect id="button10-shading" x="123.955" y="77.423" width="4" height="13" transform="translate(31.374 202.084) rotate(-85)" fill="#666" opacity="0.2" class="mrc-fill-border"></rect><rect id="button9" x="103.904" y="70.632" width="15" height="15" transform="translate(23.86 182.303) rotate(-85)" fill="#fff" stroke="#666" stroke-width="2" class="mrc-stroke-border mrc-fill-white"></rect><rect id="button9-shading" x="109.012" y="76.115" width="4" height="13" transform="translate(19.036 186.005) rotate(-85)" fill="#666" opacity="0.2" class="mrc-fill-border"></rect><rect id="button8" x="88.961" y="69.325" width="15" height="15" transform="translate(11.521 166.224) rotate(-85)" fill="#fff" stroke="#666" stroke-width="2" class="mrc-stroke-border mrc-fill-white"></rect><rect id="button8-shading" x="94.069" y="74.808" width="4" height="13" transform="translate(6.698 169.925) rotate(-85)" fill="#666" opacity="0.2" class="mrc-fill-border"></rect><rect id="button7" x="120.155" y="56.997" width="15" height="15" transform="translate(52.277 186.044) rotate(-85)" fill="#fff" stroke="#666" stroke-width="2" class="mrc-stroke-border mrc-fill-white"></rect><rect id="button7-shading" x="125.262" y="62.48" width="4" height="13" transform="translate(47.453 189.746) rotate(-85)" fill="#666" opacity="0.2" class="mrc-fill-border"></rect><rect id="button6" x="105.212" y="55.689" width="15" height="15" transform="translate(39.939 169.965) rotate(-85)" fill="#fff" stroke="#666" stroke-width="2" class="mrc-stroke-border mrc-fill-white"></rect><rect id="button6-shading" x="110.319" y="61.172" width="4" height="13" transform="translate(35.115 173.666) rotate(-85)" fill="#666" opacity="0.2" class="mrc-fill-border"></rect><rect id="button5" x="90.269" y="54.382" width="15" height="15" transform="translate(27.601 153.885) rotate(-85)" fill="#fff" stroke="#666" stroke-width="2" class="mrc-stroke-border mrc-fill-white"></rect><rect id="button5-shading" x="95.377" y="59.865" width="4" height="13" transform="translate(22.777 157.587) rotate(-85)" fill="#666" opacity="0.2" class="mrc-fill-border"></rect><rect id="button4" x="136.405" y="43.361" width="15" height="15" transform="translate(80.695 189.786) rotate(-85)" fill="#fff" stroke="#666" stroke-width="2" class="mrc-stroke-border mrc-fill-white"></rect><rect id="button4-shading" x="141.513" y="48.844" width="4" height="13" transform="translate(75.871 193.487) rotate(-85)" fill="#666" opacity="0.2" class="mrc-fill-border"></rect><rect id="button3" x="121.462" y="42.054" width="15" height="15" transform="translate(68.357 173.706) rotate(-85)" fill="#fff" stroke="#666" stroke-width="2" class="mrc-stroke-border mrc-fill-white"></rect><rect id="button3-shading" x="126.57" y="47.537" width="4" height="13" transform="translate(63.533 177.408) rotate(-85)" fill="#666" opacity="0.2" class="mrc-fill-border"></rect><rect id="button2" x="106.519" y="40.747" width="15" height="15" transform="translate(56.019 157.627) rotate(-85)" fill="#fff" stroke="#666" stroke-width="2" class="mrc-stroke-border mrc-fill-white"></rect><rect id="button2-shading" x="111.627" y="46.229" width="4" height="13" transform="translate(51.195 161.328) rotate(-85)" fill="#666" opacity="0.2" class="mrc-fill-border"></rect><rect id="button1" x="91.576" y="39.439" width="15" height="15" transform="translate(43.68 141.547) rotate(-85)" fill="#fff" stroke="#666" stroke-width="2" class="mrc-stroke-border mrc-fill-white"></rect><rect id="button1-shading" x="96.684" y="44.922" width="4" height="13" transform="translate(38.857 145.249) rotate(-85)" fill="#666" opacity="0.2" class="mrc-fill-border"></rect></g></g></svg>
